<?xml version="1.0" ?>

<!DOCTYPE svg  PUBLIC '-//W3C//DTD SVG 1.1//EN'  'http://www.w3.org/Graphics/SVG/1.1/DTD/svg11.dtd'>

<!-- Uploaded to: SVG Repo, www.svgrepo.com, Generator: SVG Repo Mixer Tools -->
<svg fill="#f4f3ee" width="800px" height="800px" viewBox="0 0 32 32" style="fill-rule:evenodd;clip-rule:evenodd;stroke-linejoin:round;stroke-miterlimit:2;" version="1.1" xml:space="preserve" xmlns="http://www.w3.org/2000/svg" xmlns:serif="http://www.serif.com/" xmlns:xlink="http://www.w3.org/1999/xlink">

<g id="Icon">

<path d="M11.997,17.993l-0.002,-0c-1.104,-0 -2.001,0.897 -2.001,2.001c-0,1.105 0.897,2.002 2.001,2.002c1.105,0 2.002,-0.897 2.002,-2.002l0,-7.122c0,-0 6.001,-0.75 6.001,-0.75l0.003,3.867c-1.105,0 -2.002,0.897 -2.002,2.002c-0,1.105 0.897,2.002 2.002,2.002c1.104,-0 2.001,-0.897 2.001,-2.002l-0.005,-7.003c-0,-0.286 -0.123,-0.559 -0.338,-0.749c-0.215,-0.189 -0.501,-0.278 -0.786,-0.242l-8,1c-0.5,0.062 -0.876,0.488 -0.876,0.992l0,6.004Z"/>

<path d="M28,17.001l0.009,-9.806c-0,-1.769 -1.435,-3.203 -3.204,-3.203l-17.614,0c-1.77,0 -3.204,1.434 -3.204,3.203l0,17.603c0,1.768 1.434,3.202 3.204,3.202l11.815,0c0.552,0 1,-0.448 1,-1c0,-0.552 -0.448,-1 -1,-1l-11.815,-0c-0.665,-0 -1.204,-0.538 -1.204,-1.202c0,-0 0,-17.603 0,-17.603c0,-0.664 0.539,-1.203 1.204,-1.203c0,0 17.614,0 17.614,0c0.664,0 1.204,0.539 1.204,1.203c-0,-0 -0.009,9.804 -0.009,9.804c-0,0.552 0.447,1.001 0.999,1.001c0.552,0 1.001,-0.447 1.001,-0.999Z"/>

<path d="M24.004,22.007l-1.004,-0c-0.552,-0 -1,0.448 -1,1c-0,0.552 0.448,1 1,1l1.004,-0l-0,0.99c-0,0.552 0.448,1 1,1c0.552,-0 1,-0.448 1,-1l-0,-0.99l0.996,-0c0.552,-0 1,-0.448 1,-1c-0,-0.552 -0.448,-1 -1,-1l-0.996,-0l-0,-1.007c-0,-0.552 -0.448,-1 -1,-1c-0.552,-0 -1,0.448 -1,1l-0,1.007Z"/>

</g>

</svg>